<svg width="101" height="15" viewBox="0 0 101 15" fill="none" xmlns="http://www.w3.org/2000/svg">
<path d="M8.76 6.74C9.98667 7.44667 10.6 8.51333 10.6 9.94C10.6 11.1267 10.18 12.1 9.34 12.86C8.5 13.62 7.46667 14 6.24 14H0.3V-9.53674e-07H5.82C7.00667 -9.53674e-07 8.01333 0.373332 8.84 1.12C9.66667 1.86667 10.08 2.80667 10.08 3.94C10.08 5.1 9.64 6.03333 8.76 6.74ZM5.82 2.58H3.06V5.66H5.82C6.24667 5.66 6.6 5.51333 6.88 5.22C7.17333 4.92667 7.32 4.56 7.32 4.12C7.32 3.68 7.18 3.31333 6.9 3.02C6.62 2.72667 6.26 2.58 5.82 2.58ZM3.06 11.42H6.24C6.70667 11.42 7.09333 11.2667 7.4 10.96C7.70667 10.64 7.86 10.24 7.86 9.76C7.86 9.29333 7.70667 8.90667 7.4 8.6C7.09333 8.28 6.70667 8.12 6.24 8.12H3.06V11.42ZM20.9656 12.76C19.9523 13.7733 18.699 14.28 17.2056 14.28C15.7123 14.28 14.459 13.7733 13.4456 12.76C12.4323 11.7467 11.9256 10.4933 11.9256 9C11.9256 7.52 12.4323 6.27333 13.4456 5.26C14.4723 4.23333 15.7256 3.72 17.2056 3.72C18.6856 3.72 19.939 4.23333 20.9656 5.26C21.9923 6.28667 22.5056 7.53333 22.5056 9C22.5056 10.48 21.9923 11.7333 20.9656 12.76ZM15.2656 10.98C15.7856 11.5 16.4323 11.76 17.2056 11.76C17.979 11.76 18.6256 11.5 19.1456 10.98C19.6656 10.46 19.9256 9.8 19.9256 9C19.9256 8.2 19.6656 7.54 19.1456 7.02C18.6256 6.5 17.979 6.24 17.2056 6.24C16.4323 6.24 15.7856 6.5 15.2656 7.02C14.759 7.55333 14.5056 8.21333 14.5056 9C14.5056 9.78667 14.759 10.4467 15.2656 10.98ZM29.8258 4V6.48H27.5658V10.64C27.5658 10.9867 27.6524 11.24 27.8258 11.4C27.9991 11.56 28.2524 11.6533 28.5858 11.68C28.9191 11.6933 29.3324 11.6867 29.8258 11.66V14C28.0791 14.2 26.8324 14.04 26.0858 13.52C25.3524 12.9867 24.9858 12.0267 24.9858 10.64V6.48H23.2458V4H24.9858V1.98L27.5658 1.2V4H29.8258Z" fill="#0179FF"/>
<path d="M37.9811 14H34.8411L30.9211 -9.53674e-07H33.8211L36.5011 10.38L39.4211 -9.53674e-07H41.7811L44.7211 10.38L47.4011 -9.53674e-07H50.3011L46.3811 14H43.2411L40.6011 4.76L37.9811 14ZM60.3102 10.06H52.7702C53.1035 11.3133 54.0435 11.94 55.5902 11.94C56.5768 11.94 57.3235 11.6067 57.8302 10.94L59.9102 12.14C58.9235 13.5667 57.4702 14.28 55.5502 14.28C53.8968 14.28 52.5702 13.78 51.5702 12.78C50.5702 11.78 50.0702 10.52 50.0702 9C50.0702 7.50667 50.5635 6.25333 51.5502 5.24C52.5235 4.22667 53.7902 3.72 55.3502 3.72C56.8302 3.72 58.0368 4.22667 58.9702 5.24C59.9302 6.25333 60.4102 7.50667 60.4102 9C60.4102 9.28 60.3768 9.63333 60.3102 10.06ZM52.7302 8.06H57.8302C57.6835 7.40667 57.3835 6.90667 56.9302 6.56C56.4902 6.21333 55.9635 6.04 55.3502 6.04C54.6568 6.04 54.0835 6.22 53.6302 6.58C53.1768 6.92667 52.8768 7.42 52.7302 8.06ZM68.0313 3.72C69.3779 3.72 70.5246 4.23333 71.4713 5.26C72.4313 6.28667 72.9113 7.53333 72.9113 9C72.9113 10.4933 72.4313 11.7467 71.4713 12.76C70.5379 13.7733 69.3913 14.28 68.0313 14.28C66.6313 14.28 65.5513 13.7933 64.7913 12.82V14H62.2113V-9.53674e-07H64.7913V5.18C65.5513 4.20667 66.6313 3.72 68.0313 3.72ZM65.5713 11.04C66.0913 11.56 66.7513 11.82 67.5513 11.82C68.3513 11.82 69.0113 11.56 69.5313 11.04C70.0646 10.5067 70.3313 9.82667 70.3313 9C70.3313 8.17333 70.0646 7.5 69.5313 6.98C69.0113 6.44667 68.3513 6.18 67.5513 6.18C66.7513 6.18 66.0913 6.44667 65.5713 6.98C65.0513 7.5 64.7913 8.17333 64.7913 9C64.7913 9.82667 65.0513 10.5067 65.5713 11.04ZM84.4508 10.06H76.9108C77.2441 11.3133 78.1841 11.94 79.7308 11.94C80.7174 11.94 81.4641 11.6067 81.9708 10.94L84.0508 12.14C83.0641 13.5667 81.6108 14.28 79.6908 14.28C78.0374 14.28 76.7108 13.78 75.7108 12.78C74.7108 11.78 74.2108 10.52 74.2108 9C74.2108 7.50667 74.7041 6.25333 75.6908 5.24C76.6641 4.22667 77.9308 3.72 79.4908 3.72C80.9708 3.72 82.1774 4.22667 83.1108 5.24C84.0708 6.25333 84.5508 7.50667 84.5508 9C84.5508 9.28 84.5174 9.63333 84.4508 10.06ZM76.8708 8.06H81.9708C81.8241 7.40667 81.5241 6.90667 81.0708 6.56C80.6308 6.21333 80.1041 6.04 79.4908 6.04C78.7974 6.04 78.2241 6.22 77.7708 6.58C77.3174 6.92667 77.0174 7.42 76.8708 8.06ZM88.3413 6.84C88.3413 7.26667 88.9479 7.63333 90.1613 7.94C90.5879 8.03333 90.9746 8.14667 91.3213 8.28C91.6679 8.4 92.0146 8.58 92.3613 8.82C92.7213 9.04667 93.0013 9.35333 93.2013 9.74C93.4013 10.1267 93.5013 10.5733 93.5013 11.08C93.5013 12.1067 93.1146 12.9 92.3413 13.46C91.5679 14.0067 90.6146 14.28 89.4813 14.28C87.4279 14.28 86.0279 13.4867 85.2813 11.9L87.5213 10.64C87.8279 11.5067 88.4813 11.94 89.4813 11.94C90.4013 11.94 90.8613 11.6533 90.8613 11.08C90.8613 10.6533 90.2546 10.2867 89.0413 9.98C88.5879 9.86 88.2013 9.74 87.8813 9.62C87.5613 9.5 87.2146 9.32667 86.8413 9.1C86.4679 8.86 86.1813 8.56 85.9813 8.2C85.7946 7.82667 85.7013 7.39333 85.7013 6.9C85.7013 5.91333 86.0613 5.14 86.7813 4.58C87.5146 4.00667 88.4213 3.72 89.5013 3.72C90.3146 3.72 91.0546 3.90667 91.7213 4.28C92.3879 4.64 92.9146 5.16 93.3013 5.84L91.1013 7.04C90.7813 6.36 90.2479 6.02 89.5013 6.02C89.1679 6.02 88.8879 6.1 88.6613 6.26C88.4479 6.40667 88.3413 6.6 88.3413 6.84ZM100.588 4V6.48H98.3275V10.64C98.3275 10.9867 98.4142 11.24 98.5875 11.4C98.7608 11.56 99.0142 11.6533 99.3475 11.68C99.6808 11.6933 100.094 11.6867 100.588 11.66V14C98.8408 14.2 97.5942 14.04 96.8475 13.52C96.1142 12.9867 95.7475 12.0267 95.7475 10.64V6.48H94.0075V4H95.7475V1.98L98.3275 1.2V4H100.588Z" fill="#11203E"/>
</svg>
