<svg width="17" height="18" viewBox="0 0 17 18" fill="none" xmlns="http://www.w3.org/2000/svg">
<path d="M16.4111 8.2385L9.18323 15.4663C8.29777 16.3518 7.09683 16.8492 5.8446 16.8492C4.59236 16.8492 3.39142 16.3518 2.50596 15.4663C1.62049 14.5809 1.12305 13.3799 1.12305 12.1277C1.12305 10.8754 1.62049 9.6745 2.50596 8.78904L9.73378 1.56122C10.3241 0.970914 11.1247 0.639282 11.9595 0.639282C12.7944 0.639282 13.595 0.970914 14.1853 1.56122C14.7756 2.15153 15.1072 2.95216 15.1072 3.78698C15.1072 4.6218 14.7756 5.42243 14.1853 6.01274L6.94961 13.2406C6.65446 13.5357 6.25414 13.7015 5.83673 13.7015C5.41932 13.7015 5.01901 13.5357 4.72385 13.2406C4.4287 12.9454 4.26288 12.5451 4.26288 12.1277C4.26288 11.7103 4.4287 11.31 4.72385 11.0148L11.4011 4.34539" stroke="#898892" stroke-linecap="round" stroke-linejoin="round"/>
</svg>
