<svg width="16" height="14" viewBox="0 0 16 14" fill="none" xmlns="http://www.w3.org/2000/svg">
<path d="M10.79 11.912L9.176 10.297C8.55184 10.5202 7.87715 10.5615 7.23042 10.4162C6.58369 10.2709 5.99153 9.94489 5.52282 9.47618C5.05411 9.00747 4.72814 8.41531 4.58283 7.76858C4.43752 7.12185 4.47885 6.44716 4.702 5.823L2.642 3.763C0.938 5.278 0 7 0 7C0 7 3 12.5 8 12.5C8.9604 12.4967 9.90994 12.2965 10.79 11.912ZM5.21 2.088C6.09005 1.70342 7.03959 1.50331 8 1.5C13 1.5 16 7 16 7C16 7 15.061 8.721 13.359 10.238L11.297 8.176C11.5202 7.55184 11.5615 6.87715 11.4162 6.23042C11.2709 5.58369 10.9449 4.99153 10.4762 4.52282C10.0075 4.05411 9.41531 3.72814 8.76858 3.58283C8.12185 3.43752 7.44716 3.47885 6.823 3.702L5.21 2.089V2.088Z" fill="#11203E"/>
<path d="M5.52548 6.646C5.47048 7.03031 5.50573 7.42215 5.62845 7.79047C5.75117 8.15879 5.95798 8.49347 6.2325 8.76799C6.50701 9.0425 6.84169 9.24931 7.21001 9.37203C7.57833 9.49475 7.97017 9.53 8.35448 9.475L5.52448 6.646H5.52548ZM10.4755 7.354L7.64648 4.524C8.03079 4.46899 8.42263 4.50424 8.79096 4.62696C9.15928 4.74968 9.49396 4.95649 9.76847 5.23101C10.043 5.50553 10.2498 5.8402 10.3725 6.20853C10.4952 6.57685 10.5305 6.96869 10.4755 7.353V7.354ZM13.6465 13.354L1.64648 1.354L2.35448 0.645996L14.3545 12.646L13.6465 13.354Z" fill="#11203E"/>
</svg>
