<svg width="22" height="22" viewBox="0 0 22 22" fill="none" xmlns="http://www.w3.org/2000/svg">
<path d="M16.8817 18.2966C15.1229 19.4121 13.0824 20.0029 10.9997 19.9996C5.60766 19.9996 1.12166 16.1196 0.180664 10.9996C0.610694 8.6703 1.78229 6.54247 3.52066 4.93358L0.391664 1.80758L1.80666 0.392578L21.6057 20.1926L20.1907 21.6066L16.8807 18.2966H16.8817ZM4.93466 6.34958C3.57567 7.58517 2.62898 9.20836 2.22266 10.9996C2.53496 12.366 3.16193 13.6407 4.05367 14.7222C4.94541 15.8036 6.07729 16.662 7.35922 17.2289C8.64114 17.7958 10.0377 18.0556 11.4378 17.9877C12.8378 17.9198 14.2026 17.5259 15.4237 16.8376L13.3957 14.8096C12.5324 15.3534 11.5099 15.5877 10.4959 15.474C9.48194 15.3604 8.53671 14.9055 7.81523 14.184C7.09376 13.4625 6.63889 12.5173 6.52523 11.5033C6.41156 10.4894 6.64585 9.46689 7.18966 8.60358L4.93466 6.34958ZM11.9137 13.3276L8.67166 10.0856C8.49373 10.5385 8.45185 11.0335 8.55117 11.5099C8.65049 11.9863 8.88668 12.4234 9.23078 12.7675C9.57488 13.1116 10.0119 13.3478 10.4883 13.4471C10.9647 13.5464 11.4597 13.5045 11.9127 13.3266L11.9137 13.3276ZM19.8067 15.5916L18.3757 14.1616C19.0441 13.2089 19.5201 12.1348 19.7767 10.9996C19.5049 9.8093 18.9939 8.68672 18.2748 7.70007C17.5557 6.71342 16.6435 5.88331 15.5935 5.26018C14.5436 4.63706 13.378 4.23395 12.1674 4.07534C10.9568 3.91674 9.72667 4.00596 8.55166 4.33758L6.97366 2.75958C8.22066 2.26958 9.57966 1.99958 10.9997 1.99958C16.3917 1.99958 20.8777 5.87958 21.8187 10.9996C21.5122 12.6653 20.8235 14.2372 19.8067 15.5916ZM10.7227 6.50758C11.3592 6.46824 11.9968 6.56464 12.5932 6.7904C13.1896 7.01615 13.7313 7.36609 14.1822 7.81703C14.6332 8.26797 14.9831 8.8096 15.2088 9.40604C15.4346 10.0025 15.531 10.6401 15.4917 11.2766L10.7217 6.50758H10.7227Z" fill="black"/>
</svg>
