<svg width="369" height="61" viewBox="0 0 369 61" fill="none" xmlns="http://www.w3.org/2000/svg">
<g filter="url(#filter0_d_294_2301)">
<path d="M33.704 24.864C35.912 26.016 37.64 27.624 38.888 29.688C40.136 31.704 40.76 34.008 40.76 36.6C40.76 40.728 39.296 44.16 36.368 46.896C33.44 49.632 29.864 51 25.64 51H4.04V0.599997H24.056C28.184 0.599997 31.664 1.944 34.496 4.632C37.376 7.32 38.816 10.632 38.816 14.568C38.816 18.888 37.112 22.32 33.704 24.864ZM24.056 8.376H12.32V21.624H24.056C25.88 21.624 27.416 21 28.664 19.752C29.912 18.456 30.536 16.872 30.536 15C30.536 13.128 29.912 11.568 28.664 10.32C27.416 9.024 25.88 8.376 24.056 8.376ZM12.32 43.224H25.64C27.56 43.224 29.168 42.552 30.464 41.208C31.808 39.816 32.48 38.136 32.48 36.168C32.48 34.2 31.808 32.544 30.464 31.2C29.168 29.808 27.56 29.112 25.64 29.112H12.32V43.224ZM78.2889 46.464C74.6409 50.112 70.1529 51.936 64.8249 51.936C59.4969 51.936 55.0089 50.112 51.3609 46.464C47.6649 42.768 45.8169 38.28 45.8169 33C45.8169 27.72 47.6649 23.232 51.3609 19.536C55.0089 15.888 59.4969 14.064 64.8249 14.064C70.1529 14.064 74.6409 15.888 78.2889 19.536C81.9849 23.232 83.8329 27.72 83.8329 33C83.8329 38.28 81.9849 42.768 78.2889 46.464ZM53.5929 33C53.5929 36.264 54.6729 38.976 56.8329 41.136C58.9929 43.296 61.6569 44.376 64.8249 44.376C67.9929 44.376 70.6569 43.296 72.8169 41.136C74.9769 38.976 76.0569 36.264 76.0569 33C76.0569 29.736 74.9769 27.024 72.8169 24.864C70.6569 22.704 67.9929 21.624 64.8249 21.624C61.6569 21.624 58.9929 22.704 56.8329 24.864C54.6729 27.024 53.5929 29.736 53.5929 33ZM110.249 15V22.488H101.321V39.768C101.321 41.256 101.657 42.336 102.329 43.008C103.001 43.632 103.985 43.992 105.281 44.088C106.625 44.136 108.281 44.112 110.249 44.016V51C104.297 51.72 100.025 51.216 97.433 49.488C94.841 47.712 93.545 44.472 93.545 39.768V22.488H86.921V15H93.545V7.224L101.321 4.92V15H110.249ZM138.389 51H128.813L114.557 0.599997H123.269L133.853 39.984L145.301 0.599997H152.933L164.309 39.984L174.893 0.599997H183.605L169.349 51H159.773L149.117 14.208L138.389 51ZM220.07 36.312H191.414C191.99 39 193.286 41.088 195.302 42.576C197.366 44.064 199.91 44.808 202.934 44.808C207.014 44.808 210.11 43.32 212.222 40.344L218.63 44.088C215.126 49.32 209.87 51.936 202.862 51.936C197.054 51.936 192.326 50.16 188.678 46.608C185.078 43.008 183.278 38.472 183.278 33C183.278 27.672 185.054 23.184 188.606 19.536C192.11 15.888 196.67 14.064 202.286 14.064C207.518 14.064 211.838 15.912 215.246 19.608C218.654 23.304 220.358 27.792 220.358 33.072C220.358 34.032 220.262 35.112 220.07 36.312ZM191.342 29.976H212.51C211.982 27.144 210.782 24.96 208.91 23.424C207.086 21.888 204.854 21.12 202.214 21.12C199.334 21.12 196.934 21.912 195.014 23.496C193.094 25.08 191.87 27.24 191.342 29.976ZM247.576 14.064C252.52 14.064 256.744 15.888 260.248 19.536C263.752 23.184 265.504 27.672 265.504 33C265.504 38.328 263.752 42.816 260.248 46.464C256.744 50.112 252.52 51.936 247.576 51.936C242.104 51.936 237.904 49.896 234.976 45.816V51H227.2V0.599997H234.976V20.112C237.952 16.08 242.152 14.064 247.576 14.064ZM238.216 41.28C240.376 43.44 243.088 44.52 246.352 44.52C249.616 44.52 252.328 43.44 254.488 41.28C256.648 39.072 257.728 36.312 257.728 33C257.728 29.688 256.648 26.952 254.488 24.792C252.328 22.584 249.616 21.48 246.352 21.48C243.088 21.48 240.376 22.584 238.216 24.792C236.056 26.952 234.976 29.688 234.976 33C234.976 36.264 236.056 39.024 238.216 41.28ZM307.328 36.312H278.672C279.248 39 280.544 41.088 282.56 42.576C284.624 44.064 287.168 44.808 290.192 44.808C294.272 44.808 297.368 43.32 299.48 40.344L305.888 44.088C302.384 49.32 297.128 51.936 290.12 51.936C284.312 51.936 279.584 50.16 275.936 46.608C272.336 43.008 270.536 38.472 270.536 33C270.536 27.672 272.312 23.184 275.864 19.536C279.368 15.888 283.928 14.064 289.544 14.064C294.776 14.064 299.096 15.912 302.504 19.608C305.912 23.304 307.616 27.792 307.616 33.072C307.616 34.032 307.52 35.112 307.328 36.312ZM278.6 29.976H299.768C299.24 27.144 298.04 24.96 296.168 23.424C294.344 21.888 292.112 21.12 289.472 21.12C286.592 21.12 284.192 21.912 282.272 23.496C280.352 25.08 279.128 27.24 278.6 29.976ZM320.036 24.936C320.036 26.04 320.612 26.952 321.764 27.672C322.916 28.344 324.596 28.992 326.804 29.616C328.484 30 329.948 30.408 331.196 30.84C332.444 31.272 333.764 31.92 335.156 32.784C336.548 33.6 337.604 34.704 338.324 36.096C339.092 37.44 339.452 39.024 339.404 40.848C339.404 44.304 338.06 47.016 335.372 48.984C332.684 50.952 329.348 51.936 325.364 51.936C321.812 51.936 318.764 51.192 316.22 49.704C313.676 48.216 311.828 46.152 310.676 43.512L317.372 39.624C318.572 43.08 321.236 44.808 325.364 44.808C329.444 44.808 331.484 43.464 331.484 40.776C331.484 38.808 329.204 37.272 324.644 36.168C322.916 35.736 321.452 35.304 320.252 34.872C319.1 34.44 317.804 33.816 316.364 33C314.972 32.184 313.892 31.104 313.124 29.76C312.404 28.416 312.068 26.856 312.116 25.08C312.116 21.768 313.364 19.104 315.86 17.088C318.404 15.072 321.548 14.064 325.292 14.064C328.268 14.064 330.908 14.736 333.212 16.08C335.564 17.376 337.364 19.2 338.612 21.552L332.06 25.224C330.86 22.488 328.604 21.12 325.292 21.12C323.756 21.12 322.484 21.456 321.476 22.128C320.516 22.8 320.036 23.736 320.036 24.936ZM364.921 15V22.488H355.993V39.768C355.993 41.256 356.329 42.336 357.001 43.008C357.673 43.632 358.657 43.992 359.953 44.088C361.297 44.136 362.953 44.112 364.921 44.016V51C358.969 51.72 354.697 51.216 352.105 49.488C349.513 47.712 348.217 44.472 348.217 39.768V22.488H341.593V15H348.217V7.224L355.993 4.92V15H364.921Z" fill="white"/>
<path d="M33.704 24.864L33.1058 24.0626L31.8307 25.0145L33.2414 25.7506L33.704 24.864ZM38.888 29.688L38.0322 30.2054L38.0377 30.2144L38.888 29.688ZM36.368 46.896L37.0507 47.6267H37.0508L36.368 46.896ZM4.04 51H3.04V52H4.04V51ZM4.04 0.599997V-0.400003H3.04V0.599997H4.04ZM34.496 4.632L33.8076 5.35733L33.8137 5.36305L34.496 4.632ZM12.32 8.376V7.376H11.32V8.376H12.32ZM12.32 21.624H11.32V22.624H12.32V21.624ZM28.664 19.752L29.3711 20.4591L29.3778 20.4524L29.3843 20.4456L28.664 19.752ZM28.664 10.32L27.9437 11.0136L27.9502 11.0204L27.9569 11.0271L28.664 10.32ZM12.32 43.224H11.32V44.224H12.32V43.224ZM30.464 41.208L29.7446 40.5134L29.7442 40.5139L30.464 41.208ZM30.464 31.2L29.7321 31.8814L29.7443 31.8945L29.7569 31.9071L30.464 31.2ZM12.32 29.112V28.112H11.32V29.112H12.32ZM33.2414 25.7506C35.2926 26.8208 36.8822 28.3034 38.0323 30.2054L39.7437 29.1706C38.3978 26.9446 36.5314 25.2112 34.1666 23.9774L33.2414 25.7506ZM38.0377 30.2144C39.1788 32.0576 39.76 34.176 39.76 36.6H41.76C41.76 33.84 41.0932 31.3504 39.7383 29.1616L38.0377 30.2144ZM39.76 36.6C39.76 40.4604 38.4041 43.6248 35.6853 46.1653L37.0508 47.6267C40.1879 44.6952 41.76 40.9955 41.76 36.6H39.76ZM35.6853 46.1653C32.9532 48.7182 29.6256 50 25.64 50V52C30.1024 52 33.9268 50.5458 37.0507 47.6267L35.6853 46.1653ZM25.64 50H4.04V52H25.64V50ZM5.04 51V0.599997H3.04V51H5.04ZM4.04 1.6H24.056V-0.400003H4.04V1.6ZM24.056 1.6C27.944 1.6 31.1728 2.85649 33.8076 5.3573L35.1844 3.90669C32.1552 1.03151 28.424 -0.400003 24.056 -0.400003V1.6ZM33.8137 5.36305C36.4913 7.86212 37.816 10.9095 37.816 14.568H39.816C39.816 10.3545 38.2607 6.77788 35.1783 3.90094L33.8137 5.36305ZM37.816 14.568C37.816 18.5783 36.2563 21.7109 33.1058 24.0626L34.3022 25.6654C37.9677 22.9291 39.816 19.1977 39.816 14.568H37.816ZM24.056 7.376H12.32V9.376H24.056V7.376ZM11.32 8.376V21.624H13.32V8.376H11.32ZM12.32 22.624H24.056V20.624H12.32V22.624ZM24.056 22.624C26.1353 22.624 27.9287 21.9015 29.3711 20.4591L27.9569 19.0449C26.9033 20.0985 25.6247 20.624 24.056 20.624V22.624ZM29.3843 20.4456C30.8197 18.9551 31.536 17.1191 31.536 15H29.536C29.536 16.6249 29.0044 17.9569 27.9437 19.0584L29.3843 20.4456ZM31.536 15C31.536 12.8806 30.8189 11.0607 29.3711 9.61289L27.9569 11.0271C29.0051 12.0753 29.536 13.3754 29.536 15H31.536ZM29.3843 9.62636C27.9449 8.13158 26.1475 7.376 24.056 7.376V9.376C25.6125 9.376 26.8871 9.91642 27.9437 11.0136L29.3843 9.62636ZM12.32 44.224H25.64V42.224H12.32V44.224ZM25.64 44.224C27.8229 44.224 29.6934 43.4477 31.1838 41.9021L29.7442 40.5139C28.6426 41.6563 27.2971 42.224 25.64 42.224V44.224ZM31.1834 41.9026C32.7108 40.3206 33.48 38.3902 33.48 36.168H31.48C31.48 37.8818 30.9052 39.3114 29.7446 40.5134L31.1834 41.9026ZM33.48 36.168C33.48 33.9453 32.7099 32.0317 31.1711 30.4929L29.7569 31.9071C30.9061 33.0563 31.48 34.4547 31.48 36.168H33.48ZM31.1959 30.5186C29.7087 28.9212 27.8346 28.112 25.64 28.112V30.112C27.2854 30.112 28.6273 30.6948 29.7321 31.8814L31.1959 30.5186ZM25.64 28.112H12.32V30.112H25.64V28.112ZM11.32 29.112V43.224H13.32V29.112H11.32ZM78.2889 46.464L78.996 47.1711L78.2889 46.464ZM51.3609 46.464L50.6538 47.1711L51.3609 46.464ZM51.3609 19.536L52.068 20.2431L51.3609 19.536ZM72.8169 41.136L73.524 41.8431L72.8169 41.136ZM56.8329 24.864L57.54 25.5711L56.8329 24.864ZM77.5818 45.7569C74.1281 49.2106 69.8974 50.936 64.8249 50.936V52.936C70.4084 52.936 75.1537 51.0134 78.996 47.1711L77.5818 45.7569ZM64.8249 50.936C59.7524 50.936 55.5217 49.2106 52.068 45.7569L50.6538 47.1711C54.4961 51.0134 59.2414 52.936 64.8249 52.936V50.936ZM52.068 45.7569C48.5616 42.2506 46.8169 38.0178 46.8169 33H44.8169C44.8169 38.5422 46.7681 43.2854 50.6538 47.1711L52.068 45.7569ZM46.8169 33C46.8169 27.9822 48.5616 23.7494 52.068 20.2431L50.6538 18.8289C46.7681 22.7146 44.8169 27.4578 44.8169 33H46.8169ZM52.068 20.2431C55.5217 16.7894 59.7524 15.064 64.8249 15.064V13.064C59.2414 13.064 54.4961 14.9866 50.6538 18.8289L52.068 20.2431ZM64.8249 15.064C69.8974 15.064 74.1281 16.7894 77.5818 20.2431L78.996 18.8289C75.1537 14.9866 70.4084 13.064 64.8249 13.064V15.064ZM77.5818 20.2431C81.0881 23.7494 82.8329 27.9822 82.8329 33H84.8329C84.8329 27.4578 82.8817 22.7146 78.996 18.8289L77.5818 20.2431ZM82.8329 33C82.8329 38.0178 81.0881 42.2506 77.5818 45.7569L78.996 47.1711C82.8817 43.2854 84.8329 38.5422 84.8329 33H82.8329ZM52.5929 33C52.5929 36.5091 53.7645 39.4818 56.1258 41.8431L57.54 40.4289C55.5813 38.4702 54.5929 36.0189 54.5929 33H52.5929ZM56.1258 41.8431C58.4809 44.1983 61.4026 45.376 64.8249 45.376V43.376C61.9111 43.376 59.5048 42.3937 57.54 40.4289L56.1258 41.8431ZM64.8249 45.376C68.2471 45.376 71.1688 44.1983 73.524 41.8431L72.1098 40.4289C70.1449 42.3937 67.7386 43.376 64.8249 43.376V45.376ZM73.524 41.8431C75.8853 39.4818 77.0569 36.5091 77.0569 33H75.0569C75.0569 36.0189 74.0685 38.4702 72.1098 40.4289L73.524 41.8431ZM77.0569 33C77.0569 29.4909 75.8853 26.5182 73.524 24.1569L72.1098 25.5711C74.0685 27.5298 75.0569 29.9811 75.0569 33H77.0569ZM73.524 24.1569C71.1688 21.8017 68.2471 20.624 64.8249 20.624V22.624C67.7386 22.624 70.1449 23.6063 72.1098 25.5711L73.524 24.1569ZM64.8249 20.624C61.4026 20.624 58.4809 21.8017 56.1258 24.1569L57.54 25.5711C59.5048 23.6063 61.9111 22.624 64.8249 22.624V20.624ZM56.1258 24.1569C53.7645 26.5182 52.5929 29.4909 52.5929 33H54.5929C54.5929 29.9811 55.5813 27.5298 57.54 25.5711L56.1258 24.1569ZM110.249 15H111.249V14H110.249V15ZM110.249 22.488V23.488H111.249V22.488H110.249ZM101.321 22.488V21.488H100.321V22.488H101.321ZM102.329 43.008L101.622 43.7151L101.635 43.7282L101.649 43.7408L102.329 43.008ZM105.281 44.088L105.207 45.0853L105.226 45.0867L105.245 45.0874L105.281 44.088ZM110.249 44.016H111.249V42.966L110.2 43.0172L110.249 44.016ZM110.249 51L110.369 51.9928L111.249 51.8863V51H110.249ZM97.433 49.488L96.8677 50.313L96.8783 50.32L97.433 49.488ZM93.545 22.488H94.545V21.488H93.545V22.488ZM86.921 22.488H85.921V23.488H86.921V22.488ZM86.921 15V14H85.921V15H86.921ZM93.545 15V16H94.545V15H93.545ZM93.545 7.224L93.2609 6.2652L92.545 6.47732V7.224H93.545ZM101.321 4.92H102.321V3.58073L101.037 3.9612L101.321 4.92ZM101.321 15H100.321V16H101.321V15ZM109.249 15V22.488H111.249V15H109.249ZM110.249 21.488H101.321V23.488H110.249V21.488ZM100.321 22.488V39.768H102.321V22.488H100.321ZM100.321 39.768C100.321 41.3755 100.68 42.773 101.622 43.7151L103.036 42.3009C102.634 41.899 102.321 41.1365 102.321 39.768H100.321ZM101.649 43.7408C102.544 44.5723 103.777 44.9793 105.207 45.0853L105.355 43.0907C104.193 43.0047 103.458 42.6917 103.009 42.2752L101.649 43.7408ZM105.245 45.0874C106.627 45.1367 108.313 45.1116 110.298 45.0148L110.2 43.0172C108.249 43.1124 106.623 43.1353 105.317 43.0886L105.245 45.0874ZM109.249 44.016V51H111.249V44.016H109.249ZM110.129 50.0072C104.224 50.7215 100.265 50.1744 97.9877 48.6559L96.8783 50.32C99.7846 52.2576 104.37 52.7185 110.369 51.9928L110.129 50.0072ZM97.9982 48.6631C95.7952 47.1536 94.545 44.315 94.545 39.768H92.545C92.545 44.629 93.8868 48.2704 96.8678 50.3129L97.9982 48.6631ZM94.545 39.768V22.488H92.545V39.768H94.545ZM93.545 21.488H86.921V23.488H93.545V21.488ZM87.921 22.488V15H85.921V22.488H87.921ZM86.921 16H93.545V14H86.921V16ZM94.545 15V7.224H92.545V15H94.545ZM93.8291 8.18279L101.605 5.8788L101.037 3.9612L93.2609 6.2652L93.8291 8.18279ZM100.321 4.92V15H102.321V4.92H100.321ZM101.321 16H110.249V14H101.321V16ZM138.389 51V52H139.139L139.349 51.2799L138.389 51ZM128.813 51L127.851 51.2722L128.057 52H128.813V51ZM114.557 0.599997V-0.400003H113.235L113.595 0.872175L114.557 0.599997ZM123.269 0.599997L124.235 0.340466L124.036 -0.400003H123.269V0.599997ZM133.853 39.984L132.887 40.2435L133.815 43.6966L134.813 40.2631L133.853 39.984ZM145.301 0.599997V-0.400003H144.55L144.341 0.320873L145.301 0.599997ZM152.933 0.599997L153.894 0.322493L153.685 -0.400003H152.933V0.599997ZM164.309 39.984L163.348 40.2615L164.344 43.7078L165.275 40.2435L164.309 39.984ZM174.893 0.599997V-0.400003H174.126L173.927 0.340466L174.893 0.599997ZM183.605 0.599997L184.567 0.872175L184.927 -0.400003H183.605V0.599997ZM169.349 51V52H170.106L170.311 51.2722L169.349 51ZM159.773 51L158.813 51.2782L159.022 52H159.773V51ZM149.117 14.208L150.078 13.9298L149.12 10.6246L148.157 13.9281L149.117 14.208ZM138.389 50H128.813V52H138.389V50ZM129.775 50.7278L115.519 0.327818L113.595 0.872175L127.851 51.2722L129.775 50.7278ZM114.557 1.6H123.269V-0.400003H114.557V1.6ZM122.303 0.859527L132.887 40.2435L134.819 39.7245L124.235 0.340466L122.303 0.859527ZM134.813 40.2631L146.261 0.87912L144.341 0.320873L132.893 39.7049L134.813 40.2631ZM145.301 1.6H152.933V-0.400003H145.301V1.6ZM151.972 0.877501L163.348 40.2615L165.27 39.7065L153.894 0.322493L151.972 0.877501ZM165.275 40.2435L175.859 0.859527L173.927 0.340466L163.343 39.7245L165.275 40.2435ZM174.893 1.6H183.605V-0.400003H174.893V1.6ZM182.643 0.327818L168.387 50.7278L170.311 51.2722L184.567 0.872175L182.643 0.327818ZM169.349 50H159.773V52H169.349V50ZM160.734 50.7218L150.078 13.9298L148.157 14.4862L158.813 51.2782L160.734 50.7218ZM148.157 13.9281L137.429 50.7201L139.349 51.2799L150.077 14.4879L148.157 13.9281ZM220.07 36.312V37.312H220.923L221.057 36.47L220.07 36.312ZM191.414 36.312V35.312H190.177L190.436 36.5215L191.414 36.312ZM195.302 42.576L194.708 43.3806L194.717 43.3872L195.302 42.576ZM212.222 40.344L212.726 39.4806L211.936 39.0188L211.406 39.7653L212.222 40.344ZM218.63 44.088L219.461 44.6445L220.052 43.761L219.134 43.2246L218.63 44.088ZM188.678 46.608L187.971 47.3152L187.98 47.3245L188.678 46.608ZM188.606 19.536L189.322 20.2336L189.327 20.2287L188.606 19.536ZM215.246 19.608L215.981 18.9301L215.246 19.608ZM191.342 29.976L190.36 29.7865L190.13 30.976H191.342V29.976ZM212.51 29.976V30.976H213.713L213.493 29.7927L212.51 29.976ZM208.91 23.424L208.266 24.189L208.275 24.1971L208.91 23.424ZM195.014 23.496L194.377 22.7246L195.014 23.496ZM220.07 35.312H191.414V37.312H220.07V35.312ZM190.436 36.5215C191.058 39.4231 192.476 41.7332 194.708 43.3806L195.896 41.7714C194.096 40.4428 192.922 38.5769 192.392 36.1025L190.436 36.5215ZM194.717 43.3872C196.982 45.0197 199.741 45.808 202.934 45.808V43.808C200.079 43.808 197.75 43.1083 195.887 41.7648L194.717 43.3872ZM202.934 45.808C207.293 45.808 210.713 44.1972 213.037 40.9227L211.406 39.7653C209.506 42.4428 206.734 43.808 202.934 43.808V45.808ZM211.717 41.2074L218.125 44.9514L219.134 43.2246L212.726 39.4806L211.717 41.2074ZM217.799 43.5315C214.504 48.4515 209.58 50.936 202.862 50.936V52.936C210.159 52.936 215.748 50.1885 219.461 44.6445L217.799 43.5315ZM202.862 50.936C197.275 50.936 192.81 49.2358 189.375 45.8915L187.98 47.3245C191.842 51.0842 196.833 52.936 202.862 52.936V50.936ZM189.385 45.9009C185.987 42.5034 184.278 38.2287 184.278 33H182.278C182.278 38.7153 184.168 43.5126 187.971 47.3151L189.385 45.9009ZM184.278 33C184.278 27.9192 185.961 23.6855 189.322 20.2336L187.889 18.8384C184.146 22.6825 182.278 27.4248 182.278 33H184.278ZM189.327 20.2287C192.621 16.7997 196.909 15.064 202.286 15.064V13.064C196.431 13.064 191.599 14.9763 187.885 18.8433L189.327 20.2287ZM202.286 15.064C207.251 15.064 211.301 16.8045 214.511 20.2859L215.981 18.9301C212.375 15.0195 207.784 13.064 202.286 13.064V15.064ZM214.511 20.2859C217.739 23.7873 219.358 28.0293 219.358 33.072H221.358C221.358 27.5547 219.568 22.8207 215.981 18.9301L214.511 20.2859ZM219.358 33.072C219.358 33.9673 219.268 34.9932 219.082 36.154L221.057 36.47C221.256 35.2308 221.358 34.0967 221.358 33.072H219.358ZM191.342 30.976H212.51V28.976H191.342V30.976ZM213.493 29.7927C212.93 26.7751 211.631 24.3635 209.544 22.6509L208.275 24.1971C209.932 25.5565 211.033 27.5129 211.527 30.1593L213.493 29.7927ZM209.554 22.6591C207.53 20.9547 205.063 20.12 202.214 20.12V22.12C204.645 22.12 206.642 22.8213 208.266 24.1889L209.554 22.6591ZM202.214 20.12C199.14 20.12 196.504 20.9701 194.377 22.7246L195.65 24.2674C197.364 22.8539 199.528 22.12 202.214 22.12V20.12ZM194.377 22.7246C192.257 24.4743 190.926 26.8513 190.36 29.7865L192.324 30.1655C192.813 27.6287 193.931 25.6857 195.65 24.2674L194.377 22.7246ZM260.248 19.536L259.527 20.2287L260.248 19.536ZM260.248 46.464L259.527 45.7713L260.248 46.464ZM234.976 45.816L235.788 45.233L233.976 42.7074V45.816H234.976ZM234.976 51V52H235.976V51H234.976ZM227.2 51H226.2V52H227.2V51ZM227.2 0.599997V-0.400003H226.2V0.599997H227.2ZM234.976 0.599997H235.976V-0.400003H234.976V0.599997ZM234.976 20.112H233.976V23.1508L235.781 20.7059L234.976 20.112ZM238.216 41.28L237.494 41.9716L237.501 41.9794L237.509 41.9871L238.216 41.28ZM254.488 41.28L255.195 41.9871L255.203 41.9793L254.488 41.28ZM254.488 24.792L253.773 25.4913L253.781 25.4991L254.488 24.792ZM238.216 24.792L238.923 25.4991L238.931 25.4913L238.216 24.792ZM247.576 15.064C252.241 15.064 256.207 16.7719 259.527 20.2287L260.969 18.8433C257.282 15.0041 252.799 13.064 247.576 13.064V15.064ZM259.527 20.2287C262.842 23.6798 264.504 27.915 264.504 33H266.504C266.504 27.429 264.662 22.6882 260.969 18.8433L259.527 20.2287ZM264.504 33C264.504 38.085 262.842 42.3202 259.527 45.7713L260.969 47.1567C264.662 43.3118 266.504 38.571 266.504 33H264.504ZM259.527 45.7713C256.207 49.2281 252.241 50.936 247.576 50.936V52.936C252.799 52.936 257.282 50.9959 260.969 47.1567L259.527 45.7713ZM247.576 50.936C242.393 50.936 238.51 49.025 235.788 45.233L234.164 46.399C237.298 50.767 241.816 52.936 247.576 52.936V50.936ZM233.976 45.816V51H235.976V45.816H233.976ZM234.976 50H227.2V52H234.976V50ZM228.2 51V0.599997H226.2V51H228.2ZM227.2 1.6H234.976V-0.400003H227.2V1.6ZM233.976 0.599997V20.112H235.976V0.599997H233.976ZM235.781 20.7059C238.551 16.9528 242.439 15.064 247.576 15.064V13.064C241.865 13.064 237.353 15.2072 234.171 19.5181L235.781 20.7059ZM237.509 41.9871C239.87 44.3484 242.843 45.52 246.352 45.52V43.52C243.333 43.52 240.882 42.5316 238.923 40.5729L237.509 41.9871ZM246.352 45.52C249.861 45.52 252.834 44.3484 255.195 41.9871L253.781 40.5729C251.822 42.5316 249.371 43.52 246.352 43.52V45.52ZM255.203 41.9793C257.56 39.57 258.728 36.5526 258.728 33H256.728C256.728 36.0714 255.736 38.5739 253.773 40.5807L255.203 41.9793ZM258.728 33C258.728 29.4474 257.559 26.4492 255.195 24.0849L253.781 25.4991C255.737 27.4548 256.728 29.9286 256.728 33H258.728ZM255.203 24.0927C252.843 21.6806 249.868 20.48 246.352 20.48V22.48C249.364 22.48 251.813 23.4874 253.773 25.4913L255.203 24.0927ZM246.352 20.48C242.836 20.48 239.861 21.6806 237.501 24.0927L238.931 25.4913C240.891 23.4874 243.34 22.48 246.352 22.48V20.48ZM237.509 24.0849C235.145 26.4492 233.976 29.4474 233.976 33H235.976C235.976 29.9286 236.967 27.4548 238.923 25.4991L237.509 24.0849ZM233.976 33C233.976 36.5088 235.147 39.5204 237.494 41.9716L238.938 40.5884C236.965 38.5276 235.976 36.0192 235.976 33H233.976ZM307.328 36.312V37.312H308.18L308.315 36.47L307.328 36.312ZM278.672 36.312V35.312H277.435L277.694 36.5215L278.672 36.312ZM282.56 42.576L281.966 43.3806L281.975 43.3872L282.56 42.576ZM299.48 40.344L299.984 39.4806L299.194 39.0188L298.664 39.7653L299.48 40.344ZM305.888 44.088L306.719 44.6445L307.31 43.761L306.392 43.2246L305.888 44.088ZM275.936 46.608L275.228 47.3152L275.238 47.3245L275.936 46.608ZM275.864 19.536L276.58 20.2336L276.585 20.2287L275.864 19.536ZM302.504 19.608L303.239 18.9301L302.504 19.608ZM278.6 29.976L277.618 29.7865L277.388 30.976H278.6V29.976ZM299.768 29.976V30.976H300.971L300.751 29.7927L299.768 29.976ZM296.168 23.424L295.523 24.189L295.533 24.1971L296.168 23.424ZM282.272 23.496L281.635 22.7246L282.272 23.496ZM307.328 35.312H278.672V37.312H307.328V35.312ZM277.694 36.5215C278.316 39.4231 279.734 41.7332 281.966 43.3806L283.153 41.7714C281.353 40.4428 280.18 38.5769 279.649 36.1025L277.694 36.5215ZM281.975 43.3872C284.239 45.0197 286.998 45.808 290.192 45.808V43.808C287.337 43.808 285.008 43.1083 283.144 41.7648L281.975 43.3872ZM290.192 45.808C294.551 45.808 297.971 44.1972 300.295 40.9227L298.664 39.7653C296.764 42.4428 293.992 43.808 290.192 43.808V45.808ZM298.975 41.2074L305.383 44.9514L306.392 43.2246L299.984 39.4806L298.975 41.2074ZM305.057 43.5315C301.762 48.4515 296.838 50.936 290.12 50.936V52.936C297.417 52.936 303.006 50.1885 306.719 44.6445L305.057 43.5315ZM290.12 50.936C284.533 50.936 280.068 49.2358 276.633 45.8915L275.238 47.3245C279.099 51.0842 284.091 52.936 290.12 52.936V50.936ZM276.643 45.9009C273.245 42.5034 271.536 38.2287 271.536 33H269.536C269.536 38.7153 271.426 43.5126 275.229 47.3151L276.643 45.9009ZM271.536 33C271.536 27.9192 273.219 23.6855 276.58 20.2336L275.147 18.8384C271.404 22.6825 269.536 27.4248 269.536 33H271.536ZM276.585 20.2287C279.879 16.7997 284.167 15.064 289.544 15.064V13.064C283.689 13.064 278.857 14.9763 275.142 18.8433L276.585 20.2287ZM289.544 15.064C294.509 15.064 298.558 16.8045 301.768 20.2859L303.239 18.9301C299.633 15.0195 295.042 13.064 289.544 13.064V15.064ZM301.768 20.2859C304.997 23.7873 306.616 28.0293 306.616 33.072H308.616C308.616 27.5547 306.826 22.8207 303.239 18.9301L301.768 20.2859ZM306.616 33.072C306.616 33.9673 306.526 34.9932 306.34 36.154L308.315 36.47C308.513 35.2308 308.616 34.0967 308.616 33.072H306.616ZM278.6 30.976H299.768V28.976H278.6V30.976ZM300.751 29.7927C300.188 26.7751 298.889 24.3635 296.802 22.6509L295.533 24.1971C297.19 25.5565 298.291 27.5129 298.785 30.1593L300.751 29.7927ZM296.812 22.6591C294.788 20.9547 292.32 20.12 289.472 20.12V22.12C291.903 22.12 293.899 22.8213 295.523 24.1889L296.812 22.6591ZM289.472 20.12C286.398 20.12 283.762 20.9701 281.635 22.7246L282.908 24.2674C284.621 22.8539 286.785 22.12 289.472 22.12V20.12ZM281.635 22.7246C279.514 24.4743 278.184 26.8513 277.618 29.7865L279.582 30.1655C280.071 27.6287 281.189 25.6857 282.908 24.2674L281.635 22.7246ZM321.764 27.672L321.234 28.52L321.247 28.5281L321.26 28.5358L321.764 27.672ZM326.804 29.616L326.532 30.5783L326.556 30.5852L326.581 30.5909L326.804 29.616ZM331.196 30.84L330.869 31.785L331.196 30.84ZM335.156 32.784L334.628 33.6336L334.639 33.6403L334.65 33.6467L335.156 32.784ZM338.324 36.096L337.435 36.5554L337.445 36.574L337.455 36.5921L338.324 36.096ZM339.404 40.848L338.404 40.8217L338.404 40.8348V40.848H339.404ZM335.372 48.984L335.962 49.7909L335.372 48.984ZM316.22 49.704L316.725 48.8408L316.22 49.704ZM310.676 43.512L310.173 42.6472L309.403 43.0949L309.759 43.9119L310.676 43.512ZM317.372 39.624L318.316 39.296L317.918 38.1501L316.869 38.7592L317.372 39.624ZM324.644 36.168L324.401 37.1382L324.408 37.1399L324.644 36.168ZM320.252 34.872L319.9 35.8084L319.913 35.8129L320.252 34.872ZM316.364 33L315.858 33.8627L315.864 33.8664L315.871 33.87L316.364 33ZM313.124 29.76L312.242 30.2322L312.249 30.2443L312.255 30.2561L313.124 29.76ZM312.116 25.08L313.115 25.107L313.116 25.0935V25.08H312.116ZM315.86 17.088L315.239 16.3042L315.231 16.3101L315.86 17.088ZM333.212 16.08L332.708 16.9438L332.718 16.9499L332.729 16.9558L333.212 16.08ZM338.612 21.552L339.101 22.4243L339.953 21.9466L339.495 21.0833L338.612 21.552ZM332.06 25.224L331.144 25.6257L331.587 26.6354L332.549 26.0963L332.06 25.224ZM321.476 22.128L320.921 21.2959L320.911 21.3022L320.902 21.3088L321.476 22.128ZM319.036 24.936C319.036 26.4675 319.867 27.6658 321.234 28.52L322.294 26.824C321.356 26.2382 321.036 25.6125 321.036 24.936H319.036ZM321.26 28.5358C322.518 29.27 324.292 29.9453 326.532 30.5783L327.076 28.6537C324.9 28.0387 323.313 27.418 322.267 26.8082L321.26 28.5358ZM326.581 30.5909C328.236 30.9691 329.663 31.3678 330.869 31.785L331.523 29.895C330.232 29.4482 328.732 29.0309 327.026 28.6411L326.581 30.5909ZM330.869 31.785C332.032 32.1878 333.285 32.7998 334.628 33.6336L335.683 31.9344C334.242 31.0402 332.855 30.3562 331.523 29.895L330.869 31.785ZM334.65 33.6467C335.884 34.3701 336.805 35.3365 337.435 36.5554L339.212 35.6366C338.402 34.0715 337.211 32.8299 335.661 31.9213L334.65 33.6467ZM337.455 36.5921C338.117 37.7508 338.448 39.1475 338.404 40.8217L340.403 40.8743C340.455 38.9005 340.066 37.1292 339.192 35.5999L337.455 36.5921ZM338.404 40.848C338.404 43.9992 337.201 46.4056 334.781 48.1771L335.962 49.7909C338.919 47.6264 340.404 44.6088 340.404 40.848H338.404ZM334.781 48.1771C332.296 49.9966 329.178 50.936 325.364 50.936V52.936C329.517 52.936 333.071 51.9074 335.962 49.7909L334.781 48.1771ZM325.364 50.936C321.953 50.936 319.087 50.2225 316.725 48.8408L315.715 50.5672C318.441 52.1615 321.671 52.936 325.364 52.936V50.936ZM316.725 48.8408C314.359 47.4571 312.657 45.5532 311.592 43.1121L309.759 43.9119C310.998 46.7508 312.992 48.9749 315.715 50.5672L316.725 48.8408ZM311.178 44.3768L317.874 40.4888L316.869 38.7592L310.173 42.6472L311.178 44.3768ZM316.427 39.952C317.088 41.8567 318.179 43.348 319.725 44.351C321.262 45.3474 323.164 45.808 325.364 45.808V43.808C323.436 43.808 321.942 43.4046 320.814 42.673C319.696 41.948 318.855 40.8473 318.316 39.296L316.427 39.952ZM325.364 45.808C327.482 45.808 329.244 45.4649 330.504 44.6351C331.836 43.7571 332.484 42.4164 332.484 40.776H330.484C330.484 41.8236 330.111 42.4989 329.403 42.9649C328.623 43.4791 327.326 43.808 325.364 43.808V45.808ZM332.484 40.776C332.484 39.3378 331.629 38.1923 330.332 37.3186C329.048 36.4535 327.205 35.7591 324.879 35.1961L324.408 37.1399C326.643 37.6809 328.219 38.3065 329.215 38.9774C330.198 39.6397 330.484 40.2462 330.484 40.776H332.484ZM324.886 35.1979C323.179 34.7711 321.749 34.3483 320.59 33.9311L319.913 35.8129C321.154 36.2597 322.652 36.7009 324.401 37.1381L324.886 35.1979ZM320.603 33.9357C319.513 33.5271 318.266 32.9284 316.857 32.13L315.871 33.87C317.342 34.7036 318.686 35.3529 319.901 35.8083L320.603 33.9357ZM316.869 32.1373C315.621 31.4058 314.669 30.4495 313.992 29.2639L312.255 30.2561C313.114 31.7585 314.322 32.9622 315.858 33.8627L316.869 32.1373ZM314.005 29.2878C313.38 28.1208 313.071 26.7381 313.115 25.107L311.116 25.053C311.064 26.9739 311.427 28.7112 312.242 30.2322L314.005 29.2878ZM313.116 25.08C313.116 22.0588 314.236 19.6851 316.488 17.8659L315.231 16.3101C312.492 18.5229 311.116 21.4771 311.116 25.08H313.116ZM316.481 17.8717C318.822 16.0168 321.737 15.064 325.292 15.064V13.064C321.358 13.064 317.986 14.1272 315.239 16.3043L316.481 17.8717ZM325.292 15.064C328.112 15.064 330.574 15.699 332.708 16.9438L333.715 15.2162C331.241 13.773 328.424 13.064 325.292 13.064V15.064ZM332.729 16.9558C334.912 18.1588 336.572 19.8421 337.728 22.0207L339.495 21.0833C338.155 18.5579 336.215 16.5932 333.694 15.2042L332.729 16.9558ZM338.123 20.6797L331.571 24.3517L332.549 26.0963L339.101 22.4243L338.123 20.6797ZM332.975 24.8223C332.304 23.2918 331.313 22.0954 329.986 21.2909C328.666 20.4907 327.084 20.12 325.292 20.12V22.12C326.811 22.12 328.013 22.4333 328.949 23.0011C329.878 23.5646 330.615 24.4202 331.144 25.6257L332.975 24.8223ZM325.292 20.12C323.611 20.12 322.132 20.4884 320.921 21.2959L322.03 22.96C322.835 22.4235 323.9 22.12 325.292 22.12V20.12ZM320.902 21.3088C319.667 22.1732 319.036 23.419 319.036 24.936H321.036C321.036 24.053 321.364 23.4268 322.049 22.9472L320.902 21.3088ZM364.921 15H365.921V14H364.921V15ZM364.921 22.488V23.488H365.921V22.488H364.921ZM355.993 22.488V21.488H354.993V22.488H355.993ZM357.001 43.008L356.294 43.7151L356.307 43.7282L356.32 43.7408L357.001 43.008ZM359.953 44.088L359.879 45.0853L359.898 45.0867L359.917 45.0874L359.953 44.088ZM364.921 44.016H365.921V42.966L364.872 43.0172L364.921 44.016ZM364.921 51L365.041 51.9928L365.921 51.8863V51H364.921ZM352.105 49.488L351.54 50.313L351.55 50.32L352.105 49.488ZM348.217 22.488H349.217V21.488H348.217V22.488ZM341.593 22.488H340.593V23.488H341.593V22.488ZM341.593 15V14H340.593V15H341.593ZM348.217 15V16H349.217V15H348.217ZM348.217 7.224L347.933 6.2652L347.217 6.47732V7.224H348.217ZM355.993 4.92H356.993V3.58073L355.709 3.9612L355.993 4.92ZM355.993 15H354.993V16H355.993V15ZM363.921 15V22.488H365.921V15H363.921ZM364.921 21.488H355.993V23.488H364.921V21.488ZM354.993 22.488V39.768H356.993V22.488H354.993ZM354.993 39.768C354.993 41.3755 355.352 42.773 356.294 43.7151L357.708 42.3009C357.306 41.899 356.993 41.1365 356.993 39.768H354.993ZM356.32 43.7408C357.216 44.5723 358.449 44.9793 359.879 45.0853L360.027 43.0907C358.865 43.0047 358.13 42.6917 357.681 42.2752L356.32 43.7408ZM359.917 45.0874C361.299 45.1367 362.985 45.1116 364.97 45.0148L364.872 43.0172C362.921 43.1124 361.295 43.1353 359.989 43.0886L359.917 45.0874ZM363.921 44.016V51H365.921V44.016H363.921ZM364.801 50.0072C358.896 50.7215 354.937 50.1744 352.66 48.6559L351.55 50.32C354.456 52.2576 359.042 52.7185 365.041 51.9928L364.801 50.0072ZM352.67 48.6631C350.467 47.1536 349.217 44.315 349.217 39.768H347.217C347.217 44.629 348.559 48.2704 351.54 50.3129L352.67 48.6631ZM349.217 39.768V22.488H347.217V39.768H349.217ZM348.217 21.488H341.593V23.488H348.217V21.488ZM342.593 22.488V15H340.593V22.488H342.593ZM341.593 16H348.217V14H341.593V16ZM349.217 15V7.224H347.217V15H349.217ZM348.501 8.18279L356.277 5.8788L355.709 3.9612L347.933 6.2652L348.501 8.18279ZM354.993 4.92V15H356.993V4.92H354.993ZM355.993 16H364.921V14H355.993V16Z" fill="black"/>
</g>
<defs>
<filter id="filter0_d_294_2301" x="0.0400085" y="0.600006" width="368.881" height="59.48" filterUnits="userSpaceOnUse" color-interpolation-filters="sRGB">
<feFlood flood-opacity="0" result="BackgroundImageFix"/>
<feColorMatrix in="SourceAlpha" type="matrix" values="0 0 0 0 0 0 0 0 0 0 0 0 0 0 0 0 0 0 127 0" result="hardAlpha"/>
<feOffset dy="4"/>
<feGaussianBlur stdDeviation="2"/>
<feComposite in2="hardAlpha" operator="out"/>
<feColorMatrix type="matrix" values="0 0 0 0 0 0 0 0 0 0 0 0 0 0 0 0 0 0 0.25 0"/>
<feBlend mode="normal" in2="BackgroundImageFix" result="effect1_dropShadow_294_2301"/>
<feBlend mode="normal" in="SourceGraphic" in2="effect1_dropShadow_294_2301" result="shape"/>
</filter>
</defs>
</svg>
