<svg width="76" height="76" viewBox="0 0 76 76" fill="none" xmlns="http://www.w3.org/2000/svg">
<path d="M45.1698 22.7318C54.6698 14.1818 51.5031 8.08588 48.7323 6.10667C46.3573 4.52334 40.6573 3.01917 36.8573 9.66917C32.1073 17.9817 32.1073 16.7942 29.7323 19.1692C27.3573 21.5442 19.0448 25.1067 13.1073 29.8567C8.35727 33.6567 7.16977 42.5233 7.16977 46.4817C6.77394 51.6276 8.83227 63.3443 20.2323 69.0443C24.9817 70.9443 32.5024 71.4193 35.6691 71.4193H65.3566C67.3357 71.0235 71.2941 69.0443 71.2941 64.2943C71.2941 58.3568 63.734 56.389 60.9828 57.3729M45.1698 22.7318C40.4198 23.6818 38.4406 26.2943 38.0448 27.4818C37.7861 28.2578 37.595 29.3128 37.6539 30.4146M45.1698 22.7318C50.3156 21.9401 60.8448 22.42 61.7948 28.12C62.7448 33.82 58.2323 35.3985 55.8573 35.7943M55.8573 35.7943C54.0162 35.7943 49.2295 35.7943 43.9823 35.7943M55.8573 35.7943C57.8364 36.1901 61.7948 37.9318 61.7948 41.7318C61.7948 45.5318 58.6281 47.2735 57.0448 47.6693M43.9823 35.7943C43.5887 35.7943 43.1925 35.7943 42.7948 35.7943C38.9572 35.1547 37.7127 31.5165 37.6539 30.4146M43.9823 35.7943C42.0031 36.1901 38.0448 37.9318 38.0448 41.7318C38.0448 45.5318 38.0448 44.1068 38.0448 42.9193C38.0448 44.5026 39.2323 47.6693 43.9823 47.6693M43.9823 47.6693C48.7323 47.6693 54.6698 47.6693 57.0448 47.6693M43.9823 47.6693C42.0031 48.0651 38.0448 49.8068 38.0448 53.6068C38.0448 57.4068 41.5625 59.5443 43.9823 59.5443L54.625 59.375C58.1875 59.375 59.9132 58.6376 60.9828 57.3729M57.0448 47.6693C58.2323 48.0651 60.9828 49.4081 61.7948 52.25C62.2491 53.8402 61.7643 56.4487 60.9828 57.3729M37.6539 30.4146C39.52 36.48 35.6698 48.3818 26.1698 55.9818" stroke="white" stroke-width="3.04"/>
</svg>
