<svg width="76" height="76" viewBox="0 0 76 76" fill="none" xmlns="http://www.w3.org/2000/svg">
<path d="M45.916 31.6663C43.2877 31.6663 41.166 29.5447 41.166 26.9163V11.083C41.166 8.45467 43.2877 6.33301 45.916 6.33301C48.5443 6.33301 50.666 8.45467 50.666 11.083V26.9163C50.666 29.5447 48.5443 31.6663 45.916 31.6663Z" stroke="white" stroke-width="3.04" stroke-linecap="round" stroke-linejoin="round"/>
<path d="M64.916 31.667H60.166V26.917C60.166 24.2887 62.2877 22.167 64.916 22.167C67.5443 22.167 69.666 24.2887 69.666 26.917C69.666 29.5453 67.5443 31.667 64.916 31.667Z" stroke="white" stroke-width="3.04" stroke-linecap="round" stroke-linejoin="round"/>
<path d="M30.084 44.333C32.7123 44.333 34.834 46.4547 34.834 49.083V64.9163C34.834 67.5447 32.7123 69.6663 30.084 69.6663C27.4557 69.6663 25.334 67.5447 25.334 64.9163V49.083C25.334 46.4547 27.4557 44.333 30.084 44.333Z" stroke="white" stroke-width="3.04" stroke-linecap="round" stroke-linejoin="round"/>
<path d="M11.084 44.333H15.834V49.083C15.834 51.7113 13.7123 53.833 11.084 53.833C8.45565 53.833 6.33398 51.7113 6.33398 49.083C6.33398 46.4547 8.45565 44.333 11.084 44.333Z" stroke="white" stroke-width="3.04" stroke-linecap="round" stroke-linejoin="round"/>
<path d="M44.334 45.917C44.334 43.2887 46.4557 41.167 49.084 41.167H64.9173C67.5456 41.167 69.6673 43.2887 69.6673 45.917C69.6673 48.5453 67.5456 50.667 64.9173 50.667H49.084C46.4557 50.667 44.334 48.5453 44.334 45.917Z" stroke="white" stroke-width="3.04" stroke-linecap="round" stroke-linejoin="round"/>
<path d="M49.084 60.167H44.334V64.917C44.334 67.5453 46.4557 69.667 49.084 69.667C51.7123 69.667 53.834 67.5453 53.834 64.917C53.834 62.2887 51.7123 60.167 49.084 60.167Z" stroke="white" stroke-width="3.04" stroke-linecap="round" stroke-linejoin="round"/>
<path d="M31.6673 30.083C31.6673 27.4547 29.5456 25.333 26.9173 25.333H11.084C8.45565 25.333 6.33398 27.4547 6.33398 30.083C6.33398 32.7113 8.45565 34.833 11.084 34.833H26.9173C29.5456 34.833 31.6673 32.7113 31.6673 30.083Z" stroke="white" stroke-width="3.04" stroke-linecap="round" stroke-linejoin="round"/>
<path d="M26.916 15.833H31.666V11.083C31.666 8.45467 29.5443 6.33301 26.916 6.33301C24.2877 6.33301 22.166 8.45467 22.166 11.083C22.166 13.7113 24.2877 15.833 26.916 15.833Z" stroke="white" stroke-width="3.04" stroke-linecap="round" stroke-linejoin="round"/>
</svg>
